Coordinates
version=1
nRows=21
nColumns=33
inDegrees=yes

Units are S.I. units (second, meters, Newtons, ...)
Angles are in degrees.

endheader
time	ground_thorax_rot_x	ground_thorax_rot_y	ground_thorax_rot_z	ground_thorax_tx	ground_thorax_ty	ground_thorax_tz	clav_prot_r	clav_elev_r	scapula_abduction_r	scapula_elevation_r	scapula_upward_rot_r	scapula_winging_r	shoulder_elv_r	plane_of_elev_r	axial_rot_r	elbow_flexion_r	pro_sup_r	wrist_flex_r	wrist_dev_r	clav_prot_l	clav_elev_l	scapula_abduction_l	scapula_elevation_l	scapula_upward_rot_l	scapula_winging_l	shoulder_elv_l	plane_of_elev_l	axial_rot_l	elbow_flexion_l	pro_sup_l	wrist_flex_l	wrist_dev_l
      3.10000000	     38.42094788	     -3.51282691	     -0.03356582	   -138.96384775	    892.99496491	     -3.22976309	     15.09605532	     36.97801395	     41.80863432	     45.00000000	    -45.00000000	   1357.81618573	  -3338.28896347	    142.91634992	    179.99999979	    736.18442278	     67.33659247	     25.87496388	      9.58562085	     11.08675736	    -45.00000000	    -44.88420766	     45.00000000	    -31.55629230	  -3863.71169160	  -2609.24740189	    136.13283527	   -179.99999979	   1090.56745651	   -319.56960619	     10.42883150	    -24.99999983
      3.11000000	     38.35040276	     -3.34538062	      0.09014005	   -135.56369159	    890.82125018	     -2.92293317	     15.18858196	     36.99795650	     42.13467168	     45.00000000	    -45.00000000	   1357.94168165	  -3338.25704330	    142.89865392	    179.99999979	    736.28757824	     66.84173680	     25.62020438	      9.48731987	     10.89329640	    -45.00000000	    -45.00000000	     45.00000000	    -30.54443577	  -3863.92319495	  -2609.45235868	    136.18612327	   -179.99999979	   1090.19160126	   -321.83579321	     11.14030830	    -24.99999983
      3.12000000	     38.26489730	     -3.31213101	      0.17814301	   -132.31929030	    888.55655218	     -2.50690457	     15.27036418	     37.07241912	     42.38864736	     45.00000000	    -45.00000000	   1358.03474534	  -3338.10400585	    142.76442995	    179.99999979	    736.52524701	     66.27384348	     25.41587129	      9.45658049	     10.73214093	    -45.00000000	    -45.00000000	     45.00000000	    -29.72464234	  -3864.13733292	  -2609.62419991	    136.17992466	   -179.99999979	   1089.87040346	   -323.97526077	     11.62830500	    -24.99999983
      3.13000000	     38.19198915	     -3.39716377	      0.16504951	   -129.16803139	    886.15806949	     -2.02092091	     15.38830817	     37.13724824	     42.68326295	     45.00000000	    -45.00000000	   1358.21627490	  -3337.94551658	    142.73926556	    179.99999979	    736.85884948	     65.59649312	     25.15609105	      9.38109483	     10.47069981	    -45.00000000	    -45.00000000	     45.00000000	    -28.68866433	  -3864.44717127	  -2609.82290788	    136.26747504	   -179.99999979	   1089.62175498	   -326.03427002	     12.16859765	    -24.84227892
      3.14000000	     38.13226388	     -3.46836029	      0.17444097	   -126.01700261	    883.57464007	     -1.53410807	     15.49267697	     37.17651242	     42.91245733	     45.00000000	    -45.00000000	   1358.42691499	  -3337.79243373	    142.68779911	    179.99999979	    737.16159834	     64.84204128	     24.91304603	      9.35218265	     10.17430567	    -45.00000000	    -45.00000000	     45.00000000	    -27.76092196	  -3864.73516289	  -2610.04440316	    136.29344049	   -179.99999979	   1089.35209126	   -327.88251438	     12.65598762	    -24.65532723
      3.15000000	     38.14394683	     -3.38631839	      0.32379112	   -122.66197027	    880.64376584	     -1.19003543	     15.64522324	     37.25056663	     43.15989889	     45.00000000	    -45.00000000	   1358.63131474	  -3337.78511015	    142.63505771	    179.99999979	    737.26991999	     64.04510161	     24.69180924	      9.38238767	      9.94862559	    -45.00000000	    -45.00000000	     45.00000000	    -27.07039528	  -3865.00708691	  -2610.33653813	    136.30486951	   -179.99999979	   1089.14572209	   -329.51608266	     13.03066579	    -24.44892039
      3.16000000	     38.20949706	     -3.16504568	      0.54096619	   -119.09064679	    877.36724480	     -1.00531354	     15.87475818	     37.41129970	     43.40012466	     45.00000000	    -45.00000000	   1358.83108033	  -3337.94299775	    142.53879286	    179.99999979	    737.15357290	     63.25763187	     24.52284582	      9.50510128	      9.87833534	    -45.00000000	    -45.00000000	     45.00000000	    -26.60733213	  -3865.30494368	  -2610.63037607	    136.30698261	   -179.99999979	   1089.01193588	   -330.84298744	     13.25067842	    -24.28244517
      3.17000000	     38.35653184	     -2.77635055	      0.94134053	   -115.25858665	    873.70291571	     -1.02355472	     16.08288074	     37.48808569	     43.73302325	     45.00000000	    -45.00000000	   1359.07010124	  -3338.26613376	    142.51291735	    179.99999979	    736.80361832	     62.44446473	     24.35803953	      9.65025411	      9.72668241	    -45.00000000	    -45.00000000	     45.00000000	    -26.58938401	  -3865.63095383	  -2610.97882901	    136.32323820	   -179.99999979	   1088.92079885	   -331.79776291	     13.51097826	    -24.14213734
      3.18000000	     38.52223734	     -2.23138310	      1.38728162	   -111.28298981	    869.75148613	     -1.17627360	     16.36889529	     37.52933006	     44.17838990	     45.00000000	    -45.00000000	   1359.29870592	  -3338.89905809	    142.61888506	    179.99999979	    736.32928980	     61.50090517	     24.18889257	      9.81070299	      9.50829986	    -45.00000000	    -45.00000000	     45.00000000	    -26.38577515	  -3865.93934825	  -2611.43195949	    136.34599485	   -179.99999979	   1088.80694899	   -332.57323451	     13.89062210	    -24.00365705
      3.19000000	     38.71123941	     -1.61517763	      1.90257178	   -107.31482010	    865.62538304	     -1.37332708	     16.64629011	     37.71206226	     44.41981018	     45.00000000	    -45.00000000	   1359.52418983	  -3339.48920820	    142.53941312	    179.99999979	    735.71072768	     60.57847926	     24.03010056	     10.05442969	      9.59710634	    -45.00000000	    -45.00000000	     45.00000000	    -26.57235947	  -3866.32900226	  -2611.87051696	    136.40508747	   -179.99999979	   1088.69393011	   -333.23465687	     14.01633700	    -23.86294061
      3.20000000	     38.85881751	     -0.79541587	      2.59929620	   -103.55772215	    861.47908455	     -1.47350769	     15.77851615	     37.57694361	     44.40558256	     45.00000000	    -45.00000000	   1359.65104220	  -3340.09525380	    142.28158651	    179.99999979	    735.16583963	     59.72287561	     23.94492831	     10.40798942	      9.93615318	    -45.00000000	    -45.00000000	     45.00000000	    -27.28503084	  -3866.49415170	  -2612.32317049	    136.10261949	   -179.99999979	   1088.45510665	   -333.72520031	     13.93601959	    -23.63851916
      3.21000000	     39.06129013	     -0.79228442	      2.53538658	   -100.04873477	    857.33488252	     -1.45705252	     16.60783322	     37.91067559	     44.63708241	     45.00000000	    -44.36790203	   1360.17060978	  -3340.56510136	    142.56054769	    179.99999979	    734.76944107	     58.59764485	     23.72845648	     10.57956768	      9.47130785	    -45.00000000	    -45.00000000	     45.00000000	    -26.51045750	  -3867.02886601	  -2612.87895989	    136.39501353	   -179.99999979	   1088.48421181	   -334.26121852	     14.35039531	    -23.56391490
      3.22000000	     39.22660952	     -0.77955147	      2.46682726	    -96.73595206	    853.15933326	     -1.35465726	     16.97804528	     38.07805310	     44.84102944	     45.00000000	    -43.54116313	   1360.64737340	  -3341.16945515	    142.90128513	    179.99999979	    734.41046387	     57.20530304	     23.61361662	     10.91304515	      9.10948624	    -45.00000000	    -45.00000000	     45.00000000	    -25.97162363	  -3867.48239614	  -2613.41633508	    136.51853124	   -179.99999979	   1088.38392998	   -334.79899963	     14.72759832	    -23.39523368
      3.23000000	     39.34669120	     -0.49409828	      2.66659508	    -93.58250110	    848.94050480	     -1.19097749	     17.06122287	     38.24116405	     44.82517971	     45.00000000	    -43.30812252	   1361.03690772	  -3341.58539670	    142.86341524	    179.99999979	    734.02489259	     55.88769484	     23.41433067	     11.22927203	      9.16223999	    -45.00000000	    -45.00000000	     45.00000000	    -25.93314223	  -3867.91210817	  -2613.89150975	    136.55269949	   -179.99999979	   1088.19378169	   -335.36416858	     14.79796878	    -23.18551991
      3.24000000	     39.50380705	     -0.38940269	      2.71871005	    -90.55832911	    844.67346309	     -0.98257351	     17.08354465	     38.42148059	     44.90060862	     45.00000000	    -42.87818739	   1361.45273270	  -3342.02529797	    142.97478191	    179.99999979	    733.68321861	     54.55982522	     23.26135910	     11.58180985	      9.04286896	    -45.00000000	    -45.00000000	     45.00000000	    -25.86902790	  -3868.34015322	  -2614.39373173	    136.59046003	   -179.99999979	   1088.12045969	   -335.92337154	     14.89810950	    -23.00113015
      3.25000000	     39.64781211	     -0.11798295	      2.92837387	    -87.64674479	    840.37054651	     -0.73973619	     17.22395108	     38.55344294	     44.83964111	     45.00000000	    -42.58383066	   1361.88296045	  -3342.47827171	    143.05916321	    179.99999979	    733.30470216	     53.17746901	     23.06148441	     11.91586272	      8.95275551	    -45.00000000	    -45.00000000	     45.00000000	    -25.92696476	  -3868.74560834	  -2614.98018152	    136.58515465	   -179.99999979	   1087.87699682	   -336.47153080	     14.97779476	    -22.74937659
      3.26000000	     39.85016077	      0.37495657	      3.40638413	    -84.84045301	    836.05390530	     -0.46601451	     16.55261208	     38.46771483	     44.89118538	     45.00000000	    -42.52578558	   1362.12843604	  -3343.04070419	    143.15616701	    179.99999979	    732.90523976	     52.02249935	     22.99912275	     12.41007294	      9.02825272	    -45.00000000	    -45.00000000	     45.00000000	    -27.41415076	  -3869.05282729	  -2615.28832390	    136.11837204	   -179.99999979	   1087.69529929	   -336.94825069	     14.75511268	    -22.48469228
      3.27000000	     39.81586236	      0.28508575	      3.36506771	    -82.14407238	    831.75521823	     -0.16186449	     17.66713595	     38.71491942	     44.91532034	     45.00000000	    -42.40751598	   1362.85734067	  -3343.30681998	    143.28113322	    179.99999979	    732.58936798	     50.34866943	     22.61265344	     12.48673655	      8.85719866	    -45.00000000	    -45.00000000	     45.00000000	    -26.14902166	  -3869.52384311	  -2615.98316150	    136.74170092	   -179.99999979	   1087.62736318	   -337.68425831	     15.23932177	    -22.30325400
      3.28000000	     40.03038912	      0.86682252	      4.13213456	    -79.55894737	    827.50849675	      0.17426406	     16.80502852	     38.55169407	     45.00000000	     45.00000000	    -42.56204313	   1363.06561487	  -3343.84932966	    143.37416557	    179.99999979	    732.13135413	     49.22846257	     22.55883042	     13.03480663	      8.71007294	    -45.00000000	    -44.41971362	     45.00000000	    -28.61194782	  -3870.00219476	  -2616.15412961	    136.02518514	   -179.99999979	   1087.38763502	   -338.06484626	     14.90297698	    -21.99521270
      3.29000000	     39.97397973	      0.48239796	      3.63817412	    -77.09803144	    823.35446381	      0.54323873	     17.97852839	     38.86227732	     44.96920955	     45.00000000	    -42.07448327	   1363.82332362	  -3344.14918397	    143.58179844	    179.99999979	    731.81449204	     47.30566120	     22.14986093	     13.10757402	      8.78825599	    -45.00000000	    -45.00000000	     45.00000000	    -26.20637944	  -3870.33954425	  -2617.06901578	    136.84932644	   -179.99999979	   1087.19878047	   -338.95073928	     15.51314851	    -21.76153596
      3.30000000	     40.02121229	      0.56673237	      3.74894278	    -74.77262186	    819.34538930	      0.94424664	     18.16051162	     38.88749270	     44.99125165	     45.00000000	    -41.98169144	   1364.30010571	  -3344.57020666	    143.70151064	    179.99999979	    731.35912551	     45.55571985	     21.88024703	     13.45028566	      8.78654215	    -45.00000000	    -45.00000000	     45.00000000	    -26.24585662	  -3870.72756417	  -2617.58309295	    136.84908207	   -179.99999979	   1086.89003739	   -339.70702277	     15.66964461	    -21.43605996
